<svg width="2121" height="750" viewBox="0 0 2121 750" fill="none" xmlns="http://www.w3.org/2000/svg">
	<!-- <symbol id="logo" color="currentColor"> -->
		<path d="M584 155C604.435 155 621 171.565 621 192V415C621 435.435 604.435 452 584 452H338.728L162 596L220.909 452H166C145.565 452 129 435.435 129 415V192C129 171.565 145.565 155 166 155H584ZM329.987 244C310.665 244 295 259.664 295 278.986C295 296.494 307.86 310.999 324.649 313.569C325.71 326.73 319.958 343.269 298.845 363.187C313.743 357.476 361.837 322.923 364.828 282.18C364.923 281.128 364.975 280.063 364.975 278.986C364.975 278.876 364.972 278.766 364.971 278.656C364.972 278.51 364.975 278.364 364.975 278.218C364.975 270.586 363.101 264.965 360.004 261.004C353.888 250.817 342.734 244 329.987 244ZM420.873 244C401.55 244 385.886 259.664 385.886 278.986C385.886 296.494 398.746 310.999 415.535 313.569C416.596 326.73 410.844 343.269 389.73 363.187C404.626 357.477 452.702 322.938 455.712 282.206C455.809 281.146 455.86 280.072 455.86 278.986C455.86 278.893 455.857 278.8 455.856 278.707C455.858 278.544 455.86 278.381 455.86 278.218C455.86 270.583 453.986 264.96 450.887 260.999C444.77 250.815 433.618 244 420.873 244Z" fill="currentColor"/>
		<path d="M928.468 532.28L903.38 497.976L880.34 499C851.668 499 830.164 492.856 815.828 480.568C801.833 468.28 794.836 446.264 794.836 414.52V251.192C794.836 221.155 801.321 199.651 814.292 186.68C827.604 173.368 850.985 166.712 884.436 166.712C917.887 166.712 941.097 173.197 954.068 186.168C967.38 199.139 974.036 220.813 974.036 251.192V406.328C974.036 418.275 973.353 430.392 971.988 442.68C970.964 454.968 966.185 466.061 957.652 475.96L963.284 482.616L968.404 490.296L976.084 501.048C969.257 505.827 961.407 510.947 952.532 516.408C943.999 522.211 935.977 527.501 928.468 532.28ZM889.556 444.216C902.868 443.533 910.719 439.608 913.108 432.44C915.497 424.931 916.692 415.032 916.692 402.744V240.44C916.692 233.613 913.108 228.493 905.94 225.08C898.772 221.325 891.092 219.448 882.9 219.448C875.049 219.448 867.881 221.155 861.396 224.568C855.252 227.981 852.18 233.272 852.18 240.44V415.544C852.18 421.005 852.692 425.955 853.716 430.392C855.081 434.829 858.324 438.243 863.444 440.632C868.905 443.021 877.609 444.216 889.556 444.216ZM1092.9 499C1059.79 499 1036.58 492.685 1023.27 480.056C1009.96 467.085 1003.3 445.24 1003.3 414.52V167.224H1060.64L1062.18 414.52V417.08C1062.18 419.811 1062.18 422.883 1062.18 426.296C1062.52 429.709 1063.2 432.611 1064.23 435H1063.72C1065.42 437.731 1069.18 439.949 1074.98 441.656C1080.78 443.363 1087.1 444.216 1093.92 444.216C1101.09 444.216 1107.75 443.192 1113.89 441.144C1120.38 438.755 1123.96 435.683 1124.64 431.928L1125.67 167.224H1182.5V398.136C1182.5 414.52 1181.65 429.027 1179.94 441.656C1178.23 454.285 1174.48 464.867 1168.68 473.4C1163.21 481.592 1154.34 487.907 1142.05 492.344C1130.11 496.781 1113.72 499 1092.9 499ZM1297.89 499C1264.78 499 1241.57 492.515 1228.26 479.544C1215.29 466.232 1208.8 444.557 1208.8 414.52V251.192C1208.8 220.813 1215.29 199.139 1228.26 186.168C1241.57 173.197 1264.78 166.712 1297.89 166.712C1330.66 166.712 1353.7 173.197 1367.01 186.168C1380.66 198.797 1387.49 220.472 1387.49 251.192V398.136C1387.49 414.52 1386.63 429.027 1384.93 441.656C1383.22 454.285 1379.3 464.867 1373.15 473.4C1367.35 481.933 1358.47 488.419 1346.53 492.856C1334.58 496.952 1318.37 499 1297.89 499ZM1298.91 443.704C1313.93 443.704 1322.81 440.12 1325.54 432.952C1328.61 425.443 1330.14 413.837 1330.14 398.136V251.192C1330.14 241.293 1329.46 234.296 1328.1 230.2C1327.07 225.763 1324.34 223.203 1319.9 222.52C1315.47 221.496 1308.13 220.984 1297.89 220.984C1287.65 220.984 1280.14 221.837 1275.36 223.544C1270.92 224.909 1268.02 227.811 1266.66 232.248C1265.63 236.344 1265.12 242.659 1265.12 251.192L1266.14 400.696C1266.14 412.301 1266.83 421.176 1268.19 427.32C1269.56 433.464 1272.63 437.731 1277.41 440.12C1282.19 442.509 1289.35 443.704 1298.91 443.704ZM1448.59 499V220.472H1395.34V166.712H1558.67V220.472H1505.42V499H1448.59ZM1568.34 499V167.736H1626.19V499H1568.34ZM1655.86 499V166.712H1817.65V220.472H1713.2V297.784H1786.93V352.056H1713.2V499H1655.86ZM1899.12 499V361.784C1880.35 345.741 1866.69 329.699 1858.16 313.656C1849.63 297.613 1844.17 280.888 1841.78 263.48C1839.73 245.731 1838.7 226.445 1838.7 205.624V166.712H1895.54V180.536L1895.02 194.36V205.112L1894.51 215.864C1894.51 232.589 1896.56 249.144 1900.66 265.528C1904.75 281.912 1913.63 297.613 1927.28 312.632C1941.96 297.272 1951.34 281.4 1955.44 265.016C1959.54 248.291 1961.58 230.712 1961.58 212.28V202.04L1961.07 191.8V179L1960.56 166.712H2017.9V205.624C2017.9 226.445 2016.54 245.731 2013.81 263.48C2011.42 280.888 2005.79 297.613 1996.91 313.656C1988.38 329.357 1974.9 345.4 1956.46 361.784V499H1899.12Z" fill="currentColor"/>
	<!-- </symbol> -->
</svg>
