<svg width="1931" height="477" xmlns="http://www.w3.org/2000/svg" fill="none">
	 <symbol id="logo" color="currentColor" viewBox="0 0 1931 477">
   <path id="svg_1" fill="currentColor" d="m474.6864,22.68181c20.435,0 37,16.565 37,37l0,223c0,20.435 -16.565,37 -37,37l-245.272,0l-176.728,144l58.909,-144l-54.909,0c-20.435,0 -37,-16.565 -37,-37l0,-223c0,-20.435 16.565,-37 37,-37l418,0zm-254.013,89c-19.322,0 -34.987,15.664 -34.987,34.986c0,17.508 12.86,32.013 29.649,34.583c1.061,13.161 -4.691,29.7 -25.804,49.618c14.898,-5.711 62.992,-40.264 65.983,-81.007c0.095,-1.052 0.147,-2.117 0.147,-3.194c0,-0.11 -0.003,-0.22 -0.004,-0.33c0.001,-0.146 0.004,-0.292 0.004,-0.438c0,-7.632 -1.874,-13.253 -4.971,-17.214c-6.116,-10.187 -17.27,-17.004 -30.017,-17.004zm90.886,0c-19.323,0 -34.987,15.664 -34.987,34.986c0,17.508 12.86,32.013 29.649,34.583c1.061,13.161 -4.691,29.7 -25.805,49.618c14.896,-5.71 62.972,-40.249 65.982,-80.981c0.097,-1.06 0.148,-2.134 0.148,-3.22c0,-0.093 -0.003,-0.186 -0.004,-0.279c0.002,-0.163 0.004,-0.326 0.004,-0.489c0,-7.635 -1.874,-13.258 -4.973,-17.219c-6.117,-10.184 -17.269,-16.999 -30.014,-16.999z"/>
   <path id="svg_2" fill="currentColor" d="m819.1544,399.96181l-25.088,-34.304l-23.04,1.024c-28.672,0 -50.176,-6.144 -64.512,-18.432c-13.995,-12.288 -20.992,-34.304 -20.992,-66.048l0,-163.328c0,-30.037 6.485,-51.541 19.456,-64.512c13.312,-13.312 36.693,-19.968 70.144,-19.968c33.451,0 56.661,6.485 69.632,19.456c13.312,12.971 19.968,34.645 19.968,65.024l0,155.136c0,11.947 -0.683,24.064 -2.048,36.352c-1.024,12.288 -5.803,23.381 -14.336,33.28l5.632,6.656l5.12,7.68l7.68,10.752c-6.827,4.779 -14.677,9.899 -23.552,15.36c-8.533,5.803 -16.555,11.093 -24.064,15.872zm-38.912,-88.064c13.312,-0.683 21.163,-4.608 23.552,-11.776c2.389,-7.509 3.584,-17.408 3.584,-29.696l0,-162.304c0,-6.827 -3.584,-11.947 -10.752,-15.36c-7.168,-3.755 -14.848,-5.632 -23.04,-5.632c-7.851,0 -15.019,1.707 -21.504,5.12c-6.144,3.413 -9.216,8.704 -9.216,15.872l0,175.104c0,5.461 0.512,10.411 1.536,14.848c1.365,4.437 4.608,7.851 9.728,10.24c5.461,2.389 14.165,3.584 26.112,3.584zm203.344,54.784c-33.11,0 -56.32,-6.315 -69.63,-18.944c-13.31,-12.971 -19.97,-34.816 -19.97,-65.536l0,-247.296l57.34,0l1.54,247.296l0,2.56c0,2.731 0,5.803 0,9.216c0.34,3.413 1.02,6.315 2.05,8.704l-0.51,0c1.7,2.731 5.46,4.949 11.26,6.656c5.8,1.707 12.12,2.56 18.94,2.56c7.17,0 13.83,-1.024 19.97,-3.072c6.49,-2.389 10.07,-5.461 10.75,-9.216l1.03,-264.704l56.83,0l0,230.912c0,16.384 -0.85,30.891 -2.56,43.52c-1.71,12.629 -5.46,23.211 -11.26,31.744c-5.47,8.192 -14.34,14.507 -26.63,18.944c-11.94,4.437 -28.33,6.656 -49.15,6.656zm204.99,0c-33.11,0 -56.32,-6.485 -69.63,-19.456c-12.97,-13.312 -19.46,-34.987 -19.46,-65.024l0,-163.328c0,-30.379 6.49,-52.053 19.46,-65.024c13.31,-12.971 36.52,-19.456 69.63,-19.456c32.77,0 55.81,6.485 69.12,19.456c13.65,12.629 20.48,34.304 20.48,65.024l0,146.944c0,16.384 -0.86,30.891 -2.56,43.52c-1.71,12.629 -5.63,23.211 -11.78,31.744c-5.8,8.533 -14.68,15.019 -26.62,19.456c-11.95,4.096 -28.16,6.144 -48.64,6.144zm1.02,-55.296c15.02,0 23.9,-3.584 26.63,-10.752c3.07,-7.509 4.6,-19.115 4.6,-34.816l0,-146.944c0,-9.899 -0.68,-16.896 -2.04,-20.992c-1.03,-4.437 -3.76,-6.997 -8.2,-7.68c-4.43,-1.024 -11.77,-1.536 -22.01,-1.536c-10.24,0 -17.75,0.853 -22.53,2.56c-4.44,1.365 -7.34,4.267 -8.7,8.704c-1.03,4.096 -1.54,10.411 -1.54,18.944l1.02,149.504c0,11.605 0.69,20.48 2.05,26.624c1.37,6.144 4.44,10.411 9.22,12.8c4.78,2.389 11.94,3.584 21.5,3.584zm149.68,55.296l0,-278.528l-53.25,0l0,-53.76l163.33,0l0,53.76l-53.25,0l0,278.528l-56.83,0zm119.75,0l0,-331.264l57.85,0l0,331.264l-57.85,0zm87.52,0l0,-332.288l161.79,0l0,53.76l-104.45,0l0,77.312l73.73,0l0,54.272l-73.73,0l0,146.944l-57.34,0zm243.26,0l0,-137.216c-18.77,-16.043 -32.43,-32.085 -40.96,-48.128c-8.53,-16.043 -13.99,-32.768 -16.38,-50.176c-2.05,-17.749 -3.08,-37.035 -3.08,-57.856l0,-38.912l56.84,0l0,13.824l-0.52,13.824l0,10.752l-0.51,10.752c0,16.725 2.05,33.28 6.15,49.664c4.09,16.384 12.97,32.085 26.62,47.104c14.68,-15.36 24.06,-31.232 28.16,-47.616c4.1,-16.725 6.14,-34.304 6.14,-52.736l0,-10.24l-0.51,-10.24l0,-12.8l-0.51,-12.288l57.34,0l0,38.912c0,20.821 -1.36,40.107 -4.09,57.856c-2.39,17.408 -8.02,34.133 -16.9,50.176c-8.53,15.701 -22.01,31.744 -40.45,48.128l0,137.216l-57.34,0z"/>
 </symbol>
</svg>
